<svg width="96" height="72" viewBox="0 0 96 72" fill="none" xmlns="http://www.w3.org/2000/svg">
<path d="M61.75 6.25H34.25C33.587 6.25 32.9511 6.51339 32.4822 6.98223C32.0134 7.45107 31.75 8.08696 31.75 8.75V31.25C31.75 31.913 32.0134 32.5489 32.4822 33.0178C32.9511 33.4866 33.587 33.75 34.25 33.75H61.75C62.413 33.75 63.0489 33.4866 63.5178 33.0178C63.9866 32.5489 64.25 31.913 64.25 31.25V8.75C64.25 8.08696 63.9866 7.45107 63.5178 6.98223C63.0489 6.51339 62.413 6.25 61.75 6.25ZM61.75 8.75V24.8047L57.6766 20.7328C57.4444 20.5006 57.1688 20.3164 56.8654 20.1907C56.5621 20.0651 56.2369 20.0004 55.9086 20.0004C55.5802 20.0004 55.2551 20.0651 54.9518 20.1907C54.6484 20.3164 54.3728 20.5006 54.1406 20.7328L51.0156 23.8578L44.1406 16.9828C43.6718 16.5143 43.0362 16.2512 42.3734 16.2512C41.7107 16.2512 41.075 16.5143 40.6062 16.9828L34.25 23.3391V8.75H61.75ZM34.25 26.875L42.375 18.75L54.875 31.25H34.25V26.875ZM61.75 31.25H58.4109L52.7859 25.625L55.9109 22.5L61.75 28.3406V31.25ZM50.5 15.625C50.5 15.2542 50.61 14.8916 50.816 14.5833C51.022 14.275 51.3149 14.0346 51.6575 13.8927C52.0001 13.7508 52.3771 13.7137 52.7408 13.786C53.1045 13.8584 53.4386 14.037 53.7008 14.2992C53.963 14.5614 54.1416 14.8955 54.214 15.2592C54.2863 15.6229 54.2492 15.9999 54.1073 16.3425C53.9654 16.6851 53.725 16.978 53.4167 17.184C53.1084 17.39 52.7458 17.5 52.375 17.5C51.8777 17.5 51.4008 17.3025 51.0492 16.9508C50.6975 16.5992 50.5 16.1223 50.5 15.625Z" fill="white"/>
<path d="M5.664 66.32C4.672 66.32 3.79733 66.08 3.04 65.6C2.29333 65.12 1.71733 64.4693 1.312 63.648C0.906667 62.816 0.704 61.8933 0.704 60.88C0.704 59.8347 0.922667 58.8693 1.36 57.984C1.808 57.0987 2.41067 56.4 3.168 55.888C3.936 55.376 4.768 55.12 5.664 55.12C6.51733 55.12 7.264 55.2427 7.904 55.488C8.55467 55.7227 9.03467 56.0267 9.344 56.4C9.52533 56.624 9.63733 56.9227 9.68 57.296C9.72267 57.6587 9.744 58.16 9.744 58.8H9.424C9.22133 57.7653 8.848 57.0027 8.304 56.512C7.76 56.0107 7.04 55.76 6.144 55.76C4.992 55.76 4.064 56.1653 3.36 56.976C2.656 57.7867 2.304 59.088 2.304 60.88C2.304 61.7227 2.43733 62.5067 2.704 63.232C2.98133 63.9573 3.408 64.5493 3.984 65.008C4.56 65.456 5.28 65.68 6.144 65.68C6.92267 65.68 7.6 65.4933 8.176 65.12C8.76267 64.7467 9.28533 64.1867 9.744 63.44L10.064 63.68C9.57333 64.64 8.96533 65.3227 8.24 65.728C7.52533 66.1227 6.66667 66.32 5.664 66.32ZM11.7926 57.36C11.7926 56.816 11.718 56.416 11.5686 56.16C11.4193 55.8933 11.1206 55.76 10.6726 55.76H10.3526V55.44H11.7926C12.1873 55.44 12.4806 55.4933 12.6726 55.6C12.8753 55.696 13.0193 55.8773 13.1046 56.144C13.19 56.4107 13.2326 56.816 13.2326 57.36V59.12C13.4566 58.896 13.7446 58.7093 14.0966 58.56C14.4593 58.4 14.8646 58.32 15.3126 58.32C16.1126 58.32 16.7633 58.5333 17.2646 58.96C17.7766 59.3867 18.0326 60.1333 18.0326 61.2V66H16.5926V61.2C16.5926 60.4533 16.422 59.9093 16.0806 59.568C15.75 59.216 15.334 59.04 14.8326 59.04C14.2673 59.04 13.734 59.3227 13.2326 59.888V66H11.7926V57.36ZM22.0534 66.16C21.712 66.16 21.3654 66.0907 21.0134 65.952C20.6614 65.8027 20.3574 65.5627 20.1014 65.232C19.856 64.9013 19.7334 64.464 19.7334 63.92C19.7334 63.1093 20.1067 62.5333 20.8534 62.192C21.6107 61.8507 22.5974 61.68 23.8134 61.68H24.2934C24.2934 60.6347 24.1494 59.92 23.8614 59.536C23.5734 59.152 23.1574 58.96 22.6134 58.96C22.1334 58.96 21.7494 59.0613 21.4614 59.264C21.1734 59.4667 20.9707 59.8187 20.8534 60.32H20.1334C20.1334 59.9573 20.1547 59.6747 20.1974 59.472C20.24 59.2587 20.352 59.0613 20.5334 58.88C20.7254 58.688 21.04 58.5493 21.4774 58.464C21.9254 58.368 22.4107 58.32 22.9334 58.32C23.7974 58.32 24.48 58.5547 24.9814 59.024C25.4827 59.4827 25.7334 60.368 25.7334 61.68V66H24.9334L24.3734 65.28H24.2934C24.1014 65.5253 23.8187 65.7333 23.4454 65.904C23.072 66.0747 22.608 66.16 22.0534 66.16ZM22.7734 65.44C23.1254 65.44 23.4187 65.3547 23.6534 65.184C23.888 65.0133 24.1014 64.7787 24.2934 64.48V62.32H23.8134C23.024 62.32 22.4 62.4693 21.9414 62.768C21.4827 63.056 21.2534 63.44 21.2534 63.92C21.2534 64.4107 21.3974 64.7893 21.6854 65.056C21.984 65.312 22.3467 65.44 22.7734 65.44ZM28.2045 60.4C28.2045 59.856 28.1298 59.456 27.9805 59.2C27.8312 58.9333 27.5325 58.8 27.0845 58.8H26.7645V58.48H28.2045C28.5992 58.48 28.8978 58.5333 29.1005 58.64C29.3138 58.7467 29.4685 58.9067 29.5645 59.12H29.6445C29.8685 58.896 30.1565 58.7093 30.5085 58.56C30.8712 58.4 31.2765 58.32 31.7245 58.32C32.5245 58.32 33.1752 58.5333 33.6765 58.96C34.1885 59.3867 34.4445 60.1333 34.4445 61.2V66H33.0045V61.2C33.0045 60.4533 32.8338 59.9093 32.4925 59.568C32.1618 59.216 31.7458 59.04 31.2445 59.04C30.6792 59.04 30.1458 59.3227 29.6445 59.888V66H28.2045V60.4ZM39.4516 69.2C38.3743 69.2 37.5156 69.0027 36.8756 68.608C36.2463 68.2133 35.9316 67.584 35.9316 66.72C35.9316 66.2293 36.097 65.8027 36.4276 65.44C36.7583 65.0773 37.1796 64.8107 37.6916 64.64C37.265 64.4053 37.0516 64.0853 37.0516 63.68C37.0516 63.4667 37.0996 63.3013 37.1956 63.184C37.2916 63.0667 37.4303 62.9387 37.6116 62.8C37.2703 62.6293 36.9823 62.3627 36.7476 62C36.5236 61.6373 36.4116 61.2107 36.4116 60.72C36.4116 59.12 37.425 58.32 39.4516 58.32H42.4116V58.72L41.3716 58.88V58.96C41.7023 59.1307 41.969 59.3707 42.1716 59.68C42.385 59.9787 42.4916 60.3253 42.4916 60.72C42.4916 62.32 41.4783 63.12 39.4516 63.12C38.3316 63.12 37.7716 63.3067 37.7716 63.68C37.7716 64.0533 38.3316 64.24 39.4516 64.24C40.4863 64.24 41.329 64.448 41.9796 64.864C42.641 65.2693 42.9716 65.888 42.9716 66.72C42.9716 67.584 42.6516 68.2133 42.0116 68.608C41.3823 69.0027 40.529 69.2 39.4516 69.2ZM39.4516 62.56C39.9316 62.56 40.3156 62.416 40.6036 62.128C40.9023 61.8293 41.0516 61.36 41.0516 60.72C41.0516 60.112 40.9023 59.6533 40.6036 59.344C40.3156 59.0347 39.9316 58.88 39.4516 58.88C38.9716 58.88 38.5823 59.0293 38.2836 59.328C37.9956 59.616 37.8516 60.08 37.8516 60.72C37.8516 61.36 37.9956 61.8293 38.2836 62.128C38.5823 62.416 38.9716 62.56 39.4516 62.56ZM39.4516 68.56C40.0916 68.56 40.5983 68.4053 40.9716 68.096C41.345 67.7973 41.5316 67.3387 41.5316 66.72C41.5316 65.6533 40.8916 65.04 39.6116 64.88L38.7316 64.8C38.2943 64.9707 37.9583 65.2107 37.7236 65.52C37.489 65.8293 37.3716 66.2293 37.3716 66.72C37.3716 67.3387 37.5583 67.7973 37.9316 68.096C38.305 68.4053 38.8116 68.56 39.4516 68.56ZM47.4706 66.16C46.7453 66.16 46.132 65.9893 45.6306 65.648C45.1293 65.296 44.7506 64.8267 44.4946 64.24C44.2386 63.6427 44.1106 62.976 44.1106 62.24C44.1106 61.5147 44.2386 60.8533 44.4946 60.256C44.7506 59.6587 45.1186 59.1893 45.5986 58.848C46.0893 58.496 46.66 58.32 47.3106 58.32C48.388 58.32 49.188 58.624 49.7106 59.232C50.244 59.8293 50.5106 60.6987 50.5106 61.84L50.4786 62.48H45.6306C45.6306 63.376 45.8226 64.1067 46.2066 64.672C46.5906 65.2373 47.1186 65.52 47.7906 65.52C48.292 65.52 48.7133 65.4133 49.0546 65.2C49.4066 64.9867 49.732 64.6667 50.0306 64.24L50.3506 64.48C49.9986 65.0667 49.588 65.4933 49.1186 65.76C48.6493 66.0267 48.1 66.16 47.4706 66.16ZM48.9906 61.84C48.9906 60.9013 48.852 60.1867 48.5746 59.696C48.2973 59.2053 47.876 58.96 47.3106 58.96C46.9906 58.96 46.7026 59.088 46.4466 59.344C46.1906 59.5893 45.988 59.9307 45.8386 60.368C45.7 60.8053 45.6306 61.296 45.6306 61.84H48.9906ZM58.0671 66C57.6725 66 57.3738 65.952 57.1711 65.856C56.9791 65.7493 56.8405 65.5627 56.7551 65.296C56.6698 65.0293 56.6271 64.624 56.6271 64.08V55.44H58.0671V64.08C58.0671 64.624 58.1418 65.0293 58.2911 65.296C58.4405 65.552 58.7391 65.68 59.1871 65.68H59.5071V66H58.0671ZM61.1576 60.4C61.1576 59.856 61.083 59.456 60.9336 59.2C60.7843 58.9333 60.4856 58.8 60.0376 58.8H59.7176V58.48H61.1576C61.5523 58.48 61.851 58.5333 62.0536 58.64C62.267 58.7467 62.4216 58.9067 62.5176 59.12H62.5976C62.8216 58.896 63.1096 58.7093 63.4616 58.56C63.8243 58.4 64.2296 58.32 64.6776 58.32C65.1256 58.32 65.5096 58.4053 65.8296 58.576C66.1496 58.736 66.4056 59.024 66.5976 59.44C66.875 59.088 67.227 58.816 67.6536 58.624C68.091 58.4213 68.539 58.32 68.9976 58.32C69.6803 58.32 70.2243 58.5333 70.6296 58.96C71.035 59.3867 71.2376 60.1333 71.2376 61.2V66H69.7976V61.2C69.7976 60.432 69.691 59.8827 69.4776 59.552C69.2643 59.2107 68.9443 59.04 68.5176 59.04C68.219 59.04 67.9043 59.152 67.5736 59.376C67.243 59.5893 66.9976 59.824 66.8376 60.08C66.891 60.24 66.9176 60.6133 66.9176 61.2V66H65.4776V61.2C65.4776 60.432 65.371 59.8827 65.1576 59.552C64.9443 59.2107 64.6243 59.04 64.1976 59.04C63.6323 59.04 63.099 59.3227 62.5976 59.888V66H61.1576V60.4ZM75.2721 66.16C74.9308 66.16 74.5841 66.0907 74.2321 65.952C73.8801 65.8027 73.5761 65.5627 73.3201 65.232C73.0748 64.9013 72.9521 64.464 72.9521 63.92C72.9521 63.1093 73.3255 62.5333 74.0721 62.192C74.8295 61.8507 75.8161 61.68 77.0321 61.68H77.5121C77.5121 60.6347 77.3681 59.92 77.0801 59.536C76.7921 59.152 76.3761 58.96 75.8321 58.96C75.3521 58.96 74.9681 59.0613 74.6801 59.264C74.3921 59.4667 74.1895 59.8187 74.0721 60.32H73.3521C73.3521 59.9573 73.3735 59.6747 73.4161 59.472C73.4588 59.2587 73.5708 59.0613 73.7521 58.88C73.9441 58.688 74.2588 58.5493 74.6961 58.464C75.1441 58.368 75.6295 58.32 76.1521 58.32C77.0161 58.32 77.6988 58.5547 78.2001 59.024C78.7015 59.4827 78.9521 60.368 78.9521 61.68V66H78.1521L77.5921 65.28H77.5121C77.3201 65.5253 77.0375 65.7333 76.6641 65.904C76.2908 66.0747 75.8268 66.16 75.2721 66.16ZM75.9921 65.44C76.3441 65.44 76.6375 65.3547 76.8721 65.184C77.1068 65.0133 77.3201 64.7787 77.5121 64.48V62.32H77.0321C76.2428 62.32 75.6188 62.4693 75.1601 62.768C74.7015 63.056 74.4721 63.44 74.4721 63.92C74.4721 64.4107 74.6161 64.7893 74.9041 65.056C75.2028 65.312 75.5655 65.44 75.9921 65.44ZM83.9673 69.2C82.8899 69.2 82.0313 69.0027 81.3913 68.608C80.7619 68.2133 80.4473 67.584 80.4473 66.72C80.4473 66.2293 80.6126 65.8027 80.9433 65.44C81.2739 65.0773 81.6953 64.8107 82.2073 64.64C81.7806 64.4053 81.5673 64.0853 81.5673 63.68C81.5673 63.4667 81.6153 63.3013 81.7113 63.184C81.8073 63.0667 81.9459 62.9387 82.1273 62.8C81.7859 62.6293 81.4979 62.3627 81.2633 62C81.0393 61.6373 80.9273 61.2107 80.9273 60.72C80.9273 59.12 81.9406 58.32 83.9673 58.32H86.9273V58.72L85.8873 58.88V58.96C86.2179 59.1307 86.4846 59.3707 86.6873 59.68C86.9006 59.9787 87.0073 60.3253 87.0073 60.72C87.0073 62.32 85.9939 63.12 83.9673 63.12C82.8473 63.12 82.2873 63.3067 82.2873 63.68C82.2873 64.0533 82.8473 64.24 83.9673 64.24C85.0019 64.24 85.8446 64.448 86.4953 64.864C87.1566 65.2693 87.4873 65.888 87.4873 66.72C87.4873 67.584 87.1673 68.2133 86.5273 68.608C85.8979 69.0027 85.0446 69.2 83.9673 69.2ZM83.9673 62.56C84.4473 62.56 84.8313 62.416 85.1193 62.128C85.4179 61.8293 85.5673 61.36 85.5673 60.72C85.5673 60.112 85.4179 59.6533 85.1193 59.344C84.8313 59.0347 84.4473 58.88 83.9673 58.88C83.4873 58.88 83.0979 59.0293 82.7993 59.328C82.5113 59.616 82.3673 60.08 82.3673 60.72C82.3673 61.36 82.5113 61.8293 82.7993 62.128C83.0979 62.416 83.4873 62.56 83.9673 62.56ZM83.9673 68.56C84.6073 68.56 85.1139 68.4053 85.4873 68.096C85.8606 67.7973 86.0473 67.3387 86.0473 66.72C86.0473 65.6533 85.4073 65.04 84.1273 64.88L83.2473 64.8C82.8099 64.9707 82.4739 65.2107 82.2393 65.52C82.0046 65.8293 81.8873 66.2293 81.8873 66.72C81.8873 67.3387 82.0739 67.7973 82.4473 68.096C82.8206 68.4053 83.3273 68.56 83.9673 68.56ZM91.9863 66.16C91.2609 66.16 90.6476 65.9893 90.1463 65.648C89.6449 65.296 89.2663 64.8267 89.0103 64.24C88.7543 63.6427 88.6263 62.976 88.6263 62.24C88.6263 61.5147 88.7543 60.8533 89.0103 60.256C89.2663 59.6587 89.6343 59.1893 90.1143 58.848C90.6049 58.496 91.1756 58.32 91.8263 58.32C92.9036 58.32 93.7036 58.624 94.2263 59.232C94.7596 59.8293 95.0263 60.6987 95.0263 61.84L94.9943 62.48H90.1463C90.1463 63.376 90.3383 64.1067 90.7223 64.672C91.1063 65.2373 91.6343 65.52 92.3063 65.52C92.8076 65.52 93.2289 65.4133 93.5703 65.2C93.9223 64.9867 94.2476 64.6667 94.5463 64.24L94.8663 64.48C94.5143 65.0667 94.1036 65.4933 93.6343 65.76C93.1649 66.0267 92.6156 66.16 91.9863 66.16ZM93.5063 61.84C93.5063 60.9013 93.3676 60.1867 93.0903 59.696C92.8129 59.2053 92.3916 58.96 91.8263 58.96C91.5063 58.96 91.2183 59.088 90.9623 59.344C90.7063 59.5893 90.5036 59.9307 90.3543 60.368C90.2156 60.8053 90.1463 61.296 90.1463 61.84H93.5063Z" fill="white"/>
</svg>
