<svg width="193" height="193" viewBox="0 0 193 193" fill="none" xmlns="http://www.w3.org/2000/svg">
<rect width="193" height="193" rx="12" fill="#EFEBFF"/>
<path d="M110.75 67.25H83.25C82.587 67.25 81.9511 67.5134 81.4822 67.9822C81.0134 68.4511 80.75 69.087 80.75 69.75V92.25C80.75 92.913 81.0134 93.5489 81.4822 94.0178C81.9511 94.4866 82.587 94.75 83.25 94.75H110.75C111.413 94.75 112.049 94.4866 112.518 94.0178C112.987 93.5489 113.25 92.913 113.25 92.25V69.75C113.25 69.087 112.987 68.4511 112.518 67.9822C112.049 67.5134 111.413 67.25 110.75 67.25ZM110.75 69.75V85.8047L106.677 81.7328C106.444 81.5006 106.169 81.3164 105.865 81.1907C105.562 81.0651 105.237 81.0004 104.909 81.0004C104.58 81.0004 104.255 81.0651 103.952 81.1907C103.648 81.3164 103.373 81.5006 103.141 81.7328L100.016 84.8578L93.1406 77.9828C92.6718 77.5143 92.0362 77.2512 91.3734 77.2512C90.7107 77.2512 90.075 77.5143 89.6062 77.9828L83.25 84.3391V69.75H110.75ZM83.25 87.875L91.375 79.75L103.875 92.25H83.25V87.875ZM110.75 92.25H107.411L101.786 86.625L104.911 83.5L110.75 89.3406V92.25ZM99.5 76.625C99.5 76.2542 99.61 75.8916 99.816 75.5833C100.022 75.275 100.315 75.0346 100.657 74.8927C101 74.7508 101.377 74.7137 101.741 74.786C102.105 74.8584 102.439 75.037 102.701 75.2992C102.963 75.5614 103.142 75.8955 103.214 76.2592C103.286 76.6229 103.249 76.9999 103.107 77.3425C102.965 77.6851 102.725 77.978 102.417 78.184C102.108 78.39 101.746 78.5 101.375 78.5C100.878 78.5 100.401 78.3025 100.049 77.9508C99.6975 77.5992 99.5 77.1223 99.5 76.625Z" fill="#633CFF"/>
<path d="M47.76 122.2H44.56V121.24H47.76V118.04H48.72V121.24H51.92V122.2H48.72V125.4H47.76V122.2ZM62.1484 127.16C61.1244 127.16 60.3137 126.989 59.7164 126.648C59.119 126.296 58.6924 125.779 58.4364 125.096C58.191 124.413 58.0684 123.528 58.0684 122.44V118.36C58.0684 117.816 57.9937 117.416 57.8444 117.16C57.695 116.893 57.3964 116.76 56.9484 116.76H56.6284V116.44H58.0684C58.463 116.44 58.7564 116.493 58.9484 116.6C59.151 116.696 59.295 116.877 59.3804 117.144C59.4657 117.411 59.5084 117.816 59.5084 118.36V122.92C59.5084 124.104 59.727 125 60.1644 125.608C60.6017 126.216 61.327 126.52 62.3404 126.52C63.151 126.52 63.791 126.376 64.2604 126.088C64.7404 125.8 65.0817 125.363 65.2844 124.776C65.487 124.189 65.5884 123.411 65.5884 122.44V116.44H66.2284V122.44C66.2284 123.549 66.111 124.445 65.8764 125.128C65.6417 125.8 65.2257 126.307 64.6284 126.648C64.0417 126.989 63.215 127.16 62.1484 127.16ZM68.8608 121.4C68.8608 120.856 68.7861 120.456 68.6368 120.2C68.4874 119.933 68.1888 119.8 67.7408 119.8H67.4207V119.48H68.8608C69.2661 119.48 69.5701 119.539 69.7728 119.656C69.9861 119.763 70.1354 119.944 70.2208 120.2H70.3008C70.4928 119.955 70.7648 119.747 71.1168 119.576C71.4688 119.405 71.9168 119.32 72.4608 119.32C73.3781 119.32 74.0874 119.693 74.5888 120.44C75.0901 121.176 75.3408 122.109 75.3408 123.24C75.3408 124.381 75.0794 125.32 74.5568 126.056C74.0448 126.792 73.2928 127.16 72.3008 127.16C71.8954 127.16 71.5381 127.117 71.2288 127.032C70.9194 126.947 70.6101 126.829 70.3008 126.68V130.04H68.8608V121.4ZM71.8208 126.52C72.5034 126.52 73.0048 126.221 73.3248 125.624C73.6554 125.027 73.8208 124.232 73.8208 123.24C73.8208 122.259 73.6661 121.469 73.3568 120.872C73.0474 120.264 72.5888 119.96 71.9808 119.96C71.2661 119.96 70.7061 120.28 70.3008 120.92V126.04C70.6208 126.189 70.8981 126.307 71.1328 126.392C71.3674 126.477 71.5968 126.52 71.8208 126.52ZM77.2941 118.36C77.2941 117.816 77.2195 117.416 77.0701 117.16C76.9208 116.893 76.6221 116.76 76.1741 116.76H75.8541V116.44H77.2941C77.6888 116.44 77.9821 116.493 78.1741 116.6C78.3768 116.696 78.5208 116.877 78.6061 117.144C78.6915 117.411 78.7341 117.816 78.7341 118.36V127H77.2941V118.36ZM84.1931 127.16C83.4678 127.16 82.8385 126.989 82.3051 126.648C81.7718 126.296 81.3665 125.821 81.0891 125.224C80.8118 124.627 80.6731 123.965 80.6731 123.24C80.6731 122.515 80.8118 121.853 81.0891 121.256C81.3665 120.659 81.7718 120.189 82.3051 119.848C82.8385 119.496 83.4678 119.32 84.1931 119.32C84.9185 119.32 85.5478 119.496 86.0811 119.848C86.6145 120.189 87.0198 120.659 87.2971 121.256C87.5745 121.853 87.7131 122.515 87.7131 123.24C87.7131 123.965 87.5745 124.627 87.2971 125.224C87.0198 125.821 86.6145 126.296 86.0811 126.648C85.5478 126.989 84.9185 127.16 84.1931 127.16ZM84.1931 126.52C84.5878 126.52 84.9345 126.376 85.2331 126.088C85.5425 125.8 85.7771 125.405 85.9371 124.904C86.1078 124.403 86.1931 123.848 86.1931 123.24C86.1931 122.632 86.1078 122.077 85.9371 121.576C85.7771 121.075 85.5425 120.68 85.2331 120.392C84.9345 120.104 84.5878 119.96 84.1931 119.96C83.7985 119.96 83.4465 120.104 83.1371 120.392C82.8385 120.68 82.6038 121.075 82.4331 121.576C82.2731 122.077 82.1931 122.632 82.1931 123.24C82.1931 123.848 82.2731 124.403 82.4331 124.904C82.6038 125.405 82.8385 125.8 83.1371 126.088C83.4465 126.376 83.7985 126.52 84.1931 126.52ZM91.3815 127.16C91.0402 127.16 90.6935 127.091 90.3415 126.952C89.9895 126.803 89.6855 126.563 89.4295 126.232C89.1842 125.901 89.0615 125.464 89.0615 124.92C89.0615 124.109 89.4348 123.533 90.1815 123.192C90.9388 122.851 91.9255 122.68 93.1415 122.68H93.6215C93.6215 121.635 93.4775 120.92 93.1895 120.536C92.9015 120.152 92.4855 119.96 91.9415 119.96C91.4615 119.96 91.0775 120.061 90.7895 120.264C90.5015 120.467 90.2988 120.819 90.1815 121.32H89.4615C89.4615 120.957 89.4828 120.675 89.5255 120.472C89.5682 120.259 89.6802 120.061 89.8615 119.88C90.0535 119.688 90.3682 119.549 90.8055 119.464C91.2535 119.368 91.7388 119.32 92.2615 119.32C93.1255 119.32 93.8082 119.555 94.3095 120.024C94.8108 120.483 95.0615 121.368 95.0615 122.68V127H94.2615L93.7015 126.28H93.6215C93.4295 126.525 93.1468 126.733 92.7735 126.904C92.4002 127.075 91.9362 127.16 91.3815 127.16ZM92.1015 126.44C92.4535 126.44 92.7468 126.355 92.9815 126.184C93.2162 126.013 93.4295 125.779 93.6215 125.48V123.32H93.1415C92.3522 123.32 91.7282 123.469 91.2695 123.768C90.8108 124.056 90.5815 124.44 90.5815 124.92C90.5815 125.411 90.7255 125.789 91.0135 126.056C91.3122 126.312 91.6748 126.44 92.1015 126.44ZM99.7726 127.16C98.8446 127.16 98.13 126.792 97.6286 126.056C97.138 125.32 96.8926 124.381 96.8926 123.24C96.8926 122.099 97.1486 121.16 97.6606 120.424C98.1833 119.688 98.9406 119.32 99.9326 119.32C100.338 119.32 100.695 119.363 101.005 119.448C101.314 119.533 101.623 119.651 101.933 119.8V118.36C101.933 117.816 101.858 117.416 101.709 117.16C101.559 116.893 101.261 116.76 100.813 116.76H100.493V116.44H101.933C102.327 116.44 102.621 116.493 102.813 116.6C103.015 116.696 103.159 116.877 103.245 117.144C103.33 117.411 103.373 117.816 103.373 118.36V127H102.573L102.013 126.28H101.933C101.698 126.547 101.421 126.76 101.101 126.92C100.791 127.08 100.349 127.16 99.7726 127.16ZM100.253 126.52C100.69 126.52 101.021 126.44 101.245 126.28C101.469 126.12 101.698 125.88 101.933 125.56V120.44C101.613 120.291 101.335 120.173 101.101 120.088C100.866 120.003 100.637 119.96 100.413 119.96C99.73 119.96 99.2233 120.259 98.8926 120.856C98.5726 121.453 98.4126 122.248 98.4126 123.24C98.4126 124.221 98.5673 125.016 98.8766 125.624C99.186 126.221 99.6446 126.52 100.253 126.52ZM111.395 127C111.001 127 110.702 126.952 110.499 126.856C110.307 126.749 110.169 126.563 110.083 126.296C109.998 126.029 109.955 125.624 109.955 125.08V116.44H111.395V125.08C111.395 125.624 111.47 126.029 111.619 126.296C111.769 126.552 112.067 126.68 112.515 126.68H112.835V127H111.395ZM114.486 121.4C114.486 120.856 114.411 120.456 114.262 120.2C114.112 119.933 113.814 119.8 113.366 119.8H113.046V119.48H114.486C114.88 119.48 115.179 119.533 115.382 119.64C115.595 119.747 115.75 119.907 115.846 120.12H115.926C116.15 119.896 116.438 119.709 116.79 119.56C117.152 119.4 117.558 119.32 118.006 119.32C118.454 119.32 118.838 119.405 119.158 119.576C119.478 119.736 119.734 120.024 119.926 120.44C120.203 120.088 120.555 119.816 120.982 119.624C121.419 119.421 121.867 119.32 122.326 119.32C123.008 119.32 123.552 119.533 123.958 119.96C124.363 120.387 124.566 121.133 124.566 122.2V127H123.126V122.2C123.126 121.432 123.019 120.883 122.806 120.552C122.592 120.211 122.272 120.04 121.846 120.04C121.547 120.04 121.232 120.152 120.902 120.376C120.571 120.589 120.326 120.824 120.166 121.08C120.219 121.24 120.246 121.613 120.246 122.2V127H118.806V122.2C118.806 121.432 118.699 120.883 118.486 120.552C118.272 120.211 117.952 120.04 117.526 120.04C116.96 120.04 116.427 120.323 115.926 120.888V127H114.486V121.4ZM128.6 127.16C128.259 127.16 127.912 127.091 127.56 126.952C127.208 126.803 126.904 126.563 126.648 126.232C126.403 125.901 126.28 125.464 126.28 124.92C126.28 124.109 126.654 123.533 127.4 123.192C128.158 122.851 129.144 122.68 130.36 122.68H130.84C130.84 121.635 130.696 120.92 130.408 120.536C130.12 120.152 129.704 119.96 129.16 119.96C128.68 119.96 128.296 120.061 128.008 120.264C127.72 120.467 127.518 120.819 127.4 121.32H126.68C126.68 120.957 126.702 120.675 126.744 120.472C126.787 120.259 126.899 120.061 127.08 119.88C127.272 119.688 127.587 119.549 128.024 119.464C128.472 119.368 128.958 119.32 129.48 119.32C130.344 119.32 131.027 119.555 131.528 120.024C132.03 120.483 132.28 121.368 132.28 122.68V127H131.48L130.92 126.28H130.84C130.648 126.525 130.366 126.733 129.992 126.904C129.619 127.075 129.155 127.16 128.6 127.16ZM129.32 126.44C129.672 126.44 129.966 126.355 130.2 126.184C130.435 126.013 130.648 125.779 130.84 125.48V123.32H130.36C129.571 123.32 128.947 123.469 128.488 123.768C128.03 124.056 127.8 124.44 127.8 124.92C127.8 125.411 127.944 125.789 128.232 126.056C128.531 126.312 128.894 126.44 129.32 126.44ZM137.295 130.2C136.218 130.2 135.359 130.003 134.719 129.608C134.09 129.213 133.775 128.584 133.775 127.72C133.775 127.229 133.941 126.803 134.271 126.44C134.602 126.077 135.023 125.811 135.535 125.64C135.109 125.405 134.895 125.085 134.895 124.68C134.895 124.467 134.943 124.301 135.039 124.184C135.135 124.067 135.274 123.939 135.455 123.8C135.114 123.629 134.826 123.363 134.591 123C134.367 122.637 134.255 122.211 134.255 121.72C134.255 120.12 135.269 119.32 137.295 119.32H140.255V119.72L139.215 119.88V119.96C139.546 120.131 139.813 120.371 140.015 120.68C140.229 120.979 140.335 121.325 140.335 121.72C140.335 123.32 139.322 124.12 137.295 124.12C136.175 124.12 135.615 124.307 135.615 124.68C135.615 125.053 136.175 125.24 137.295 125.24C138.33 125.24 139.173 125.448 139.823 125.864C140.485 126.269 140.815 126.888 140.815 127.72C140.815 128.584 140.495 129.213 139.855 129.608C139.226 130.003 138.373 130.2 137.295 130.2ZM137.295 123.56C137.775 123.56 138.159 123.416 138.447 123.128C138.746 122.829 138.895 122.36 138.895 121.72C138.895 121.112 138.746 120.653 138.447 120.344C138.159 120.035 137.775 119.88 137.295 119.88C136.815 119.88 136.426 120.029 136.127 120.328C135.839 120.616 135.695 121.08 135.695 121.72C135.695 122.36 135.839 122.829 136.127 123.128C136.426 123.416 136.815 123.56 137.295 123.56ZM137.295 129.56C137.935 129.56 138.442 129.405 138.815 129.096C139.189 128.797 139.375 128.339 139.375 127.72C139.375 126.653 138.735 126.04 137.455 125.88L136.575 125.8C136.138 125.971 135.802 126.211 135.567 126.52C135.333 126.829 135.215 127.229 135.215 127.72C135.215 128.339 135.402 128.797 135.775 129.096C136.149 129.405 136.655 129.56 137.295 129.56ZM145.314 127.16C144.589 127.16 143.976 126.989 143.474 126.648C142.973 126.296 142.594 125.827 142.338 125.24C142.082 124.643 141.954 123.976 141.954 123.24C141.954 122.515 142.082 121.853 142.338 121.256C142.594 120.659 142.962 120.189 143.442 119.848C143.933 119.496 144.504 119.32 145.154 119.32C146.232 119.32 147.032 119.624 147.554 120.232C148.088 120.829 148.354 121.699 148.354 122.84L148.322 123.48H143.474C143.474 124.376 143.666 125.107 144.05 125.672C144.434 126.237 144.962 126.52 145.634 126.52C146.136 126.52 146.557 126.413 146.898 126.2C147.25 125.987 147.576 125.667 147.874 125.24L148.194 125.48C147.842 126.067 147.432 126.493 146.962 126.76C146.493 127.027 145.944 127.16 145.314 127.16ZM146.834 122.84C146.834 121.901 146.696 121.187 146.418 120.696C146.141 120.205 145.72 119.96 145.154 119.96C144.834 119.96 144.546 120.088 144.29 120.344C144.034 120.589 143.832 120.931 143.682 121.368C143.544 121.805 143.474 122.296 143.474 122.84H146.834Z" fill="#633CFF"/>
</svg>
